<mxfile host="app.diagrams.net" modified="2024-02-03T00:07:47.122Z" agent="Mozilla/5.0 (Windows NT 10.0; Win64; x64) AppleWebKit/537.36 (KHTML, like Gecko) Chrome/120.0.0.0 Safari/537.36" etag="NmyqFaNfqDa_ctjrI-jQ" version="23.1.1" type="github">
  <diagram name="Page-1" id="LkftjK5YyfBrYWC6ADFu">
    <mxGraphModel dx="794" dy="446" grid="1" gridSize="10" guides="1" tooltips="1" connect="1" arrows="1" fold="1" page="1" pageScale="1" pageWidth="850" pageHeight="1100" math="0" shadow="0">
      <root>
        <mxCell id="0" />
        <mxCell id="1" parent="0" />
        <mxCell id="tzMduCRQQmyEShlH8u4_-1" value="Start&amp;nbsp;" style="rounded=1;whiteSpace=wrap;html=1;" parent="1" vertex="1">
          <mxGeometry x="310" y="40" width="140" height="60" as="geometry" />
        </mxCell>
        <mxCell id="qmo9WzNl7AIhIgYP_0lB-1" value="" style="endArrow=classic;html=1;rounded=0;" edge="1" parent="1" target="qmo9WzNl7AIhIgYP_0lB-2">
          <mxGeometry width="50" height="50" relative="1" as="geometry">
            <mxPoint x="380" y="100" as="sourcePoint" />
            <mxPoint x="381" y="200" as="targetPoint" />
          </mxGeometry>
        </mxCell>
        <mxCell id="qmo9WzNl7AIhIgYP_0lB-2" value="Height &amp;gt; 120 cm?&amp;nbsp;" style="rhombus;whiteSpace=wrap;html=1;" vertex="1" parent="1">
          <mxGeometry x="310" y="170" width="140" height="100" as="geometry" />
        </mxCell>
        <mxCell id="qmo9WzNl7AIhIgYP_0lB-3" value="" style="endArrow=classic;html=1;rounded=0;exitX=1;exitY=0.5;exitDx=0;exitDy=0;entryX=0.6;entryY=0.033;entryDx=0;entryDy=0;entryPerimeter=0;" edge="1" parent="1" source="qmo9WzNl7AIhIgYP_0lB-2" target="qmo9WzNl7AIhIgYP_0lB-6">
          <mxGeometry width="50" height="50" relative="1" as="geometry">
            <mxPoint x="460" y="230" as="sourcePoint" />
            <mxPoint x="540" y="320" as="targetPoint" />
            <Array as="points">
              <mxPoint x="520" y="220" />
            </Array>
          </mxGeometry>
        </mxCell>
        <mxCell id="qmo9WzNl7AIhIgYP_0lB-4" value="" style="endArrow=classic;html=1;rounded=0;exitX=0;exitY=0.5;exitDx=0;exitDy=0;" edge="1" parent="1" source="qmo9WzNl7AIhIgYP_0lB-2">
          <mxGeometry width="50" height="50" relative="1" as="geometry">
            <mxPoint x="380" y="260" as="sourcePoint" />
            <mxPoint x="240" y="320" as="targetPoint" />
            <Array as="points">
              <mxPoint x="240" y="220" />
            </Array>
          </mxGeometry>
        </mxCell>
        <mxCell id="qmo9WzNl7AIhIgYP_0lB-5" value="Can&#39;t ride" style="rounded=1;whiteSpace=wrap;html=1;" vertex="1" parent="1">
          <mxGeometry x="190" y="320" width="120" height="60" as="geometry" />
        </mxCell>
        <mxCell id="qmo9WzNl7AIhIgYP_0lB-6" value="Can ride" style="rounded=1;whiteSpace=wrap;html=1;" vertex="1" parent="1">
          <mxGeometry x="450" y="320" width="120" height="60" as="geometry" />
        </mxCell>
        <mxCell id="qmo9WzNl7AIhIgYP_0lB-7" value="Yes" style="text;html=1;align=center;verticalAlign=middle;resizable=0;points=[];autosize=1;strokeColor=none;fillColor=none;" vertex="1" parent="1">
          <mxGeometry x="460" y="188" width="40" height="30" as="geometry" />
        </mxCell>
        <mxCell id="qmo9WzNl7AIhIgYP_0lB-8" value="No" style="text;html=1;align=center;verticalAlign=middle;resizable=0;points=[];autosize=1;strokeColor=none;fillColor=none;" vertex="1" parent="1">
          <mxGeometry x="260" y="188" width="40" height="30" as="geometry" />
        </mxCell>
      </root>
    </mxGraphModel>
  </diagram>
</mxfile>
